<svg width="18" height="18" viewBox="0 0 18 18" fill="none" xmlns="http://www.w3.org/2000/svg">
<g clip-path="url(#clip0_1_1440)">
<mask id="mask0_1_1440" style="mask-type:luminance" maskUnits="userSpaceOnUse" x="0" y="0" width="18" height="18">
<path d="M17.9862 0.970703H0.957031V17.9999H17.9862V0.970703Z" fill="white"/>
</mask>
<g mask="url(#mask0_1_1440)">
<path d="M9.47165 2.504C11.7467 2.504 12.0161 2.51398 12.9108 2.55389C13.7423 2.59048 14.1913 2.73017 14.4906 2.84658C14.8864 2.99958 15.1725 3.18583 15.4685 3.48185C15.7678 3.78119 15.9507 4.06391 16.1037 4.4597C16.2202 4.75904 16.3598 5.21138 16.3964 6.03956C16.4363 6.93759 16.4463 7.207 16.4463 9.47867C16.4463 11.7537 16.4363 12.0231 16.3964 12.9178C16.3598 13.7493 16.2202 14.1983 16.1037 14.4976C15.9507 14.8934 15.7645 15.1795 15.4685 15.4755C15.1691 15.7748 14.8864 15.9578 14.4906 16.1108C14.1913 16.2272 13.7389 16.3669 12.9108 16.4035C12.0127 16.4434 11.7433 16.4533 9.47165 16.4533C7.19665 16.4533 6.92724 16.4434 6.03254 16.4035C5.20104 16.3669 4.75202 16.2272 4.45268 16.1108C4.05689 15.9578 3.77085 15.7715 3.47483 15.4755C3.17549 15.1761 2.99256 14.8934 2.83956 14.4976C2.72315 14.1983 2.58346 13.746 2.54687 12.9178C2.50696 12.0198 2.49698 11.7503 2.49698 9.47867C2.49698 7.20367 2.50696 6.93426 2.54687 6.03956C2.58346 5.20806 2.72315 4.75904 2.83956 4.4597C2.99256 4.06391 3.17881 3.77787 3.47483 3.48185C3.77417 3.18251 4.05689 2.99958 4.45268 2.84658C4.75202 2.73017 5.20436 2.59048 6.03254 2.55389C6.92724 2.51398 7.19665 2.504 9.47165 2.504ZM9.47165 0.970703C7.16007 0.970703 6.8707 0.980681 5.9627 1.02059C5.05802 1.06051 4.43605 1.20685 3.89724 1.41639C3.33514 1.63591 2.85952 1.92527 2.38722 2.40089C1.9116 2.87319 1.62224 3.34881 1.40272 3.90758C1.19318 4.44972 1.04683 5.06836 1.00692 5.97304C0.967009 6.88437 0.957031 7.17374 0.957031 9.48532C0.957031 11.7969 0.967009 12.0863 1.00692 12.9943C1.04683 13.899 1.19318 14.5209 1.40272 15.0597C1.62224 15.6218 1.9116 16.0975 2.38722 16.5698C2.85952 17.042 3.33514 17.3347 3.89391 17.5509C4.43605 17.7605 5.05469 17.9068 5.95937 17.9467C6.86737 17.9866 7.15674 17.9966 9.46832 17.9966C11.7799 17.9966 12.0693 17.9866 12.9773 17.9467C13.882 17.9068 14.5039 17.7605 15.0427 17.5509C15.6015 17.3347 16.0771 17.042 16.5494 16.5698C17.0217 16.0975 17.3144 15.6218 17.5306 15.0631C17.7401 14.5209 17.8865 13.9023 17.9264 12.9976C17.9663 12.0896 17.9763 11.8002 17.9763 9.48865C17.9763 7.17706 17.9663 6.8877 17.9264 5.97969C17.8865 5.07502 17.7401 4.45305 17.5306 3.91423C17.3211 3.34881 17.0317 2.87319 16.5561 2.40089C16.0838 1.9286 15.6082 1.63591 15.0494 1.41972C14.5073 1.21018 13.8886 1.06383 12.9839 1.02392C12.0726 0.980681 11.7832 0.970703 9.47165 0.970703Z" fill="white"/>
<path d="M9.47138 5.11133C7.05668 5.11133 5.09766 7.07036 5.09766 9.48505C5.09766 11.8997 7.05668 13.8588 9.47138 13.8588C11.8861 13.8588 13.8451 11.8997 13.8451 9.48505C13.8451 7.07036 11.8861 5.11133 9.47138 5.11133ZM9.47138 12.3221C7.90482 12.3221 6.63428 11.0516 6.63428 9.48505C6.63428 7.91849 7.90482 6.64795 9.47138 6.64795C11.0379 6.64795 12.3085 7.91849 12.3085 9.48505C12.3085 11.0516 11.0379 12.3221 9.47138 12.3221Z" fill="white"/>
<path d="M15.0392 4.93906C15.0392 5.50448 14.5803 5.96015 14.0182 5.96015C13.4527 5.96015 12.9971 5.50116 12.9971 4.93906C12.9971 4.37363 13.4561 3.91797 14.0182 3.91797C14.5803 3.91797 15.0392 4.37696 15.0392 4.93906Z" fill="white"/>
</g>
</g>
<defs>
<clipPath id="clip0_1_1440">
<rect width="18" height="18" fill="white"/>
</clipPath>
</defs>
</svg>
