<svg width="21" height="21" viewBox="0 0 21 21" fill="none" xmlns="http://www.w3.org/2000/svg">
<circle cx="10.5" cy="10.4922" r="10" fill="#282828"/>
<path d="M10.9632 8.50911C10.6703 8.22069 10.3431 7.97935 9.964 7.75283C10.3144 7.51807 10.6172 7.27226 10.8956 6.99034C11.1729 6.70967 11.419 6.4003 11.6617 6.04358C11.8788 6.43113 12.1221 6.76492 12.4175 7.06021C12.6929 7.3355 13.0038 7.56756 13.3624 7.7775C13.0012 7.98569 12.6885 8.21343 12.4123 8.48606C12.1323 8.76246 11.9006 9.07431 11.6936 9.43803C11.4739 9.08312 11.2382 8.77988 10.9632 8.50911Z" fill="#FEF7D8" stroke="#FEF7D8"/>
<path d="M6.38426 12.1283C6.09136 11.8398 5.76419 11.5985 5.38505 11.372C5.73549 11.1372 6.03823 10.8914 6.31671 10.6095C6.59395 10.3288 6.84005 10.0194 7.08272 9.66272C7.29989 10.0503 7.54316 10.3841 7.83853 10.6793C8.11391 10.9546 8.42482 11.1867 8.78342 11.3966C8.42224 11.6048 8.10954 11.8326 7.83337 12.1052C7.55338 12.3816 7.32164 12.6935 7.11462 13.0572C6.89493 12.7023 6.65923 12.399 6.38426 12.1283Z" fill="#FEF7D8" stroke="#FEF7D8"/>
<path d="M12.7181 13.9382C12.4252 13.6498 12.098 13.4084 11.7189 13.1819C12.0693 12.9471 12.3721 12.7013 12.6505 12.4194C12.9278 12.1387 13.1739 11.8294 13.4165 11.4727C13.6337 11.8602 13.877 12.194 14.1724 12.4893C14.4477 12.7646 14.7586 12.9966 15.1172 13.2066C14.7561 13.4148 14.4434 13.6425 14.1672 13.9151C13.8872 14.1915 13.6555 14.5034 13.4484 14.8671C13.2288 14.5122 12.9931 14.209 12.7181 13.9382Z" fill="#FEF7D8" stroke="#FEF7D8"/>
<path d="M6.3065 5.00842V7.58907" stroke="#FEF7D8"/>
<path d="M5.01614 6.29822H7.59678" stroke="#FEF7D8"/>
<path d="M9.20984 14.04V15.9755" stroke="#FEF7D8"/>
<path d="M8.24207 15.0081H10.1775" stroke="#FEF7D8"/>
<circle cx="8.56462" cy="5.33088" r="0.322581" fill="#FEF7D8"/>
<circle cx="15.0162" cy="9.84712" r="0.322581" fill="#FEF7D8"/>
</svg>
