<svg width="18" height="18" viewBox="0 0 18 18" fill="none" xmlns="http://www.w3.org/2000/svg">
<path d="M17.1 0H0.9C0.39375 0 0 0.39375 0 0.9V17.1C0 17.6062 0.39375 18 0.9 18H17.1C17.6062 18 18 17.6062 18 17.1V0.9C18 0.39375 17.6062 0 17.1 0ZM14.175 7.875C14.0625 7.875 13.95 7.875 13.8938 7.875C12.825 7.875 11.8125 7.3125 11.1937 6.4125V11.3625C11.1937 13.3875 9.5625 15.0188 7.5375 15.0188C5.5125 15.0188 3.88125 13.3875 3.88125 11.3625C3.88125 9.3375 5.5125 7.70625 7.5375 7.70625C7.59375 7.70625 7.70625 7.70625 7.7625 7.70625V9.50625C6.75 9.39375 5.79375 10.125 5.68125 11.1375C5.56875 12.15 6.3 13.1062 7.3125 13.2188C7.36875 13.2188 7.48125 13.2188 7.5375 13.2188C8.60625 13.2188 9.45 12.4313 9.50625 11.3625V2.98125H11.25C11.4187 4.5 12.6562 5.7375 14.2312 5.85V7.875H14.175Z" fill="white"/>
</svg>
