<svg width="18" height="18" viewBox="0 0 18 18" fill="none" xmlns="http://www.w3.org/2000/svg">
<g clip-path="url(#clip0_1_1448)">
<mask id="mask0_1_1448" style="mask-type:luminance" maskUnits="userSpaceOnUse" x="0" y="0" width="18" height="18">
<path d="M17.5302 0.970703H0.500977V17.9999H17.5302V0.970703Z" fill="white"/>
</mask>
<g mask="url(#mask0_1_1448)">
<path d="M16.2697 0.970703H1.75821C1.06307 0.970703 0.500977 1.5195 0.500977 2.19801V16.7693C0.500977 17.4478 1.06307 17.9999 1.75821 17.9999H16.2697C16.9648 17.9999 17.5302 17.4478 17.5302 16.7726V2.19801C17.5302 1.5195 16.9648 0.970703 16.2697 0.970703ZM5.55321 15.4821H3.02543V7.35334H5.55321V15.4821ZM4.28932 6.24578C3.47777 6.24578 2.82254 5.59055 2.82254 4.78233C2.82254 3.9741 3.47777 3.31888 4.28932 3.31888C5.09754 3.31888 5.75277 3.9741 5.75277 4.78233C5.75277 5.58722 5.09754 6.24578 4.28932 6.24578ZM15.0124 15.4821H12.488V11.5308C12.488 10.5896 12.4713 9.37556 11.1742 9.37556C9.86041 9.37556 9.66084 10.4033 9.66084 11.4643V15.4821H7.13972V7.35334H9.56106V8.46423H9.59432C9.93025 7.82564 10.7551 7.15045 11.9824 7.15045C14.5401 7.15045 15.0124 8.83342 15.0124 11.0219V15.4821Z" fill="white"/>
</g>
</g>
<defs>
<clipPath id="clip0_1_1448">
<rect width="18" height="18" fill="white"/>
</clipPath>
</defs>
</svg>
