<svg width="105" height="46" viewBox="0 0 105 46" fill="none" xmlns="http://www.w3.org/2000/svg">
<g clip-path="url(#clip0_1_1287)">
<path d="M44.0868 0.993552C44.3594 0.949349 44.5445 0.692545 44.5003 0.419963C44.4561 0.147382 44.1993 -0.0377561 43.9268 0.00644634L44.0868 0.993552ZM45.7004 4.31498C45.4265 4.34994 45.2328 4.60035 45.2678 4.87427C45.3027 5.14819 45.5531 5.34189 45.8271 5.30693L45.7004 4.31498ZM28.4127 45.5L27.9757 45.2572C27.8804 45.4286 27.8942 45.6399 28.0109 45.7976C28.1276 45.9552 28.3257 46.03 28.5175 45.9889L28.4127 45.5ZM22.5634 20.5337C22.5001 27.3715 25.8931 32.2094 30.8019 35.5989L31.3701 34.776C26.6691 31.53 23.5038 26.9769 23.5633 20.5429L22.5634 20.5337ZM30.8019 35.5989C30.7682 35.5756 30.8132 35.5856 30.853 35.7663C30.8897 35.9326 30.9062 36.1748 30.8917 36.4951C30.8628 37.1323 30.7158 37.9876 30.4646 38.9672C29.9628 40.9232 29.0667 43.2933 27.9757 45.2572L28.8498 45.7428C29.9865 43.6968 30.9125 41.2458 31.4332 39.2157C31.6932 38.2022 31.8575 37.2731 31.8907 36.5404C31.9072 36.1757 31.8926 35.8366 31.8296 35.5509C31.7697 35.2796 31.6465 34.9669 31.3701 34.776L30.8019 35.5989ZM28.5175 45.9889C31.7719 45.2915 34.0269 43.4476 35.639 41.8951C36.4703 41.0946 37.0697 40.4359 37.609 39.9642C37.871 39.735 38.0755 39.5908 38.2373 39.5167C38.391 39.4463 38.4572 39.4603 38.4874 39.4715L38.8331 38.5331C38.4744 38.401 38.1235 38.4689 37.8208 38.6076C37.5262 38.7425 37.235 38.9628 36.9507 39.2115C36.3974 39.6954 35.7017 40.4464 34.9453 41.1748C33.3819 42.6804 31.2912 44.3718 28.308 45.0111L28.5175 45.9889ZM43.9268 0.00644634C33.2924 1.73094 22.6758 8.389 22.5634 20.5337L23.5633 20.5429C23.669 9.131 33.641 2.68747 44.0868 0.993552L43.9268 0.00644634ZM38.4874 39.4715C46.5431 42.439 57.7799 44.9281 66.8704 43.5702C71.4229 42.8902 75.4878 41.2374 78.3277 38.1428C81.1761 35.0388 82.7308 30.5515 82.3885 24.3334L81.39 24.3883C81.7213 30.4073 80.2147 34.6075 77.5909 37.4667C74.9585 40.3352 71.1403 41.9213 66.7226 42.5812C57.8728 43.9031 46.8215 41.4759 38.8331 38.5331L38.4874 39.4715ZM82.3885 24.3334C82.1173 19.4059 80.646 15.5427 78.3261 12.5612C76.0087 9.58277 72.8682 7.51457 69.3044 6.13442C62.1917 3.37992 53.3295 3.34106 45.7004 4.31498L45.8271 5.30693C53.3895 4.34151 62.0574 4.4003 68.9432 7.06694C72.3787 8.39736 75.3546 10.3706 77.5369 13.1753C79.7168 15.9769 81.1286 19.6385 81.39 24.3883L82.3885 24.3334Z" fill="#282828"/>
<path d="M44.0868 0.993552C44.3594 0.949349 44.5445 0.692545 44.5003 0.419963C44.4561 0.147382 44.1993 -0.0377561 43.9268 0.00644634M44.0868 0.993552L43.9268 0.00644634M44.0868 0.993552C33.641 2.68747 23.669 9.131 23.5633 20.5429M43.9268 0.00644634C33.2924 1.73094 22.6758 8.389 22.5634 20.5337M23.0634 20.5383L22.5634 20.5337M22.5634 20.5337C22.5001 27.3715 25.8931 32.2094 30.8019 35.5989M22.5634 20.5337L23.5633 20.5429M81.8893 24.3609L81.39 24.3883M81.39 24.3883L82.3885 24.3334M81.39 24.3883C81.7213 30.4073 80.2147 34.6075 77.5909 37.4667C74.9585 40.3352 71.1403 41.9213 66.7226 42.5812C57.8728 43.9031 46.8215 41.4759 38.8331 38.5331M81.39 24.3883C81.1286 19.6385 79.7168 15.9769 77.5369 13.1753C75.3546 10.3706 72.3787 8.39736 68.9432 7.06694C62.0574 4.4003 53.3895 4.34151 45.8271 5.30693M45.7004 4.31498C45.4265 4.34994 45.2328 4.60035 45.2678 4.87427C45.3027 5.14819 45.5531 5.34189 45.8271 5.30693M45.7004 4.31498L45.8271 5.30693M45.7004 4.31498C53.3295 3.34106 62.1917 3.37992 69.3044 6.13442C72.8682 7.51457 76.0087 9.58277 78.3261 12.5612C80.646 15.5427 82.1173 19.4059 82.3885 24.3334M27.9757 45.2572L28.4127 45.5L28.5175 45.9889M27.9757 45.2572C27.8804 45.4286 27.8942 45.6399 28.0109 45.7976C28.1276 45.9552 28.3257 46.03 28.5175 45.9889M27.9757 45.2572C29.0667 43.2933 29.9628 40.9232 30.4646 38.9672C30.7158 37.9876 30.8628 37.1323 30.8917 36.4951C30.9062 36.1748 30.8897 35.9326 30.853 35.7663C30.8132 35.5856 30.7682 35.5756 30.8019 35.5989M27.9757 45.2572L28.8498 45.7428C29.9865 43.6968 30.9125 41.2458 31.4332 39.2157C31.6932 38.2022 31.8575 37.2731 31.8907 36.5404C31.9072 36.1757 31.8926 35.8366 31.8296 35.5509C31.7697 35.2796 31.6465 34.9669 31.3701 34.776M28.5175 45.9889C31.7719 45.2915 34.0269 43.4476 35.639 41.8951C36.4703 41.0946 37.0697 40.4359 37.609 39.9642C37.871 39.735 38.0755 39.5908 38.2373 39.5167C38.391 39.4463 38.4572 39.4603 38.4874 39.4715M28.5175 45.9889L28.308 45.0111C31.2912 44.3718 33.3819 42.6804 34.9453 41.1748C35.7017 40.4464 36.3974 39.6954 36.9507 39.2115C37.235 38.9628 37.5262 38.7425 37.8208 38.6076C38.1235 38.4689 38.4744 38.401 38.8331 38.5331M31.086 35.1875L30.8019 35.5989M30.8019 35.5989L31.3701 34.776M38.6603 39.0023L38.8331 38.5331M38.8331 38.5331L38.4874 39.4715M31.3701 34.776C26.6691 31.53 23.5038 26.9769 23.5633 20.5429M38.4874 39.4715C46.5431 42.439 57.7799 44.9281 66.8704 43.5702C71.4229 42.8902 75.4878 41.2374 78.3277 38.1428C81.1761 35.0388 82.7308 30.5515 82.3885 24.3334" stroke="#282828"/>
<path d="M45.3438 16.0448C47.478 10.3283 55.2043 8.92236 58.9669 13.9738C60.5457 16.0933 60.9859 19.3827 59.8754 21.8138C58.4113 25.019 54.2617 25.194 51.1625 24.5445C51.179 26.1842 51.2999 27.8219 51.2999 29.4604" stroke="#282828" stroke-width="2" stroke-linecap="round"/>
<path d="M51.582 34.9883C51.582 34.9883 51.582 35.5291 51.582 35.8794" stroke="#282828" stroke-width="2" stroke-linecap="round"/>
</g>
<defs>
<clipPath id="clip0_1_1287">
<rect width="61" height="46" fill="white" transform="translate(22)"/>
</clipPath>
</defs>
</svg>
