<svg width="18" height="18" viewBox="0 0 18 18" fill="none" xmlns="http://www.w3.org/2000/svg">
<mask id="mask0_1_1433" style="mask-type:luminance" maskUnits="userSpaceOnUse" x="0" y="0" width="18" height="18">
<path d="M17.1205 0.970703H0.0913086V17.9999H17.1205V0.970703Z" fill="white"/>
</mask>
<g mask="url(#mask0_1_1433)">
<path d="M17.1205 9.48532C17.1205 4.78282 13.3084 0.970703 8.60593 0.970703C3.90343 0.970703 0.0913086 4.78282 0.0913086 9.48532C0.0913086 13.7351 3.20497 17.2577 7.27552 17.8965V11.9466H5.1136V9.48532H7.27552V7.60945C7.27552 5.47547 8.54673 4.29673 10.4916 4.29673C11.4229 4.29673 12.3976 4.46303 12.3976 4.46303V6.55842H11.324C10.2663 6.55842 9.93634 7.21481 9.93634 7.88883V9.48532H12.2978L11.9203 11.9466H9.93634V17.8965C14.0069 17.2577 17.1205 13.7351 17.1205 9.48532Z" fill="white"/>
</g>
</svg>
