<svg width="56" height="20" viewBox="0 0 56 20" fill="none" xmlns="http://www.w3.org/2000/svg">
<path d="M5.65492 5.10511H0.0412598V0H17.4852V5.10511H11.8715V20H5.65492V5.10511ZM18.452 0H35.4135V5.10511H24.6686V7.568H35.4135V12.3722H24.6686V14.8949H35.4135V20H18.452V0ZM36.4386 0H46.6388C53.3398 0 55.6934 4.92577 55.6934 9.97111C55.6934 16.0964 52.4334 20.002 45.4329 20.002H36.4386V0ZM42.6572 14.8949H45.0711C48.9341 14.8949 49.4788 11.7724 49.4788 9.91133C49.4788 8.64999 49.0567 5.16688 44.5887 5.16688H42.5969L42.6592 14.8969L42.6572 14.8949Z" fill="white"/>
</svg>
