<svg width="140" height="20" viewBox="0 0 140 20" fill="none" xmlns="http://www.w3.org/2000/svg">
<path d="M11.0728 2.06642C11.0728 0.415615 9.64462 0 8.51691 0V0.248592C9.19212 0.248592 9.71886 0.497184 9.71886 1.07594C9.71886 1.4061 9.49261 1.90328 8.8174 1.90328C8.29066 1.90328 7.16294 1.57312 6.33572 1.24296C5.35648 0.831229 4.45501 0.501068 3.70202 0.501068C2.19605 0.497184 1.1461 1.73626 1.1461 3.13847C1.1461 4.37755 1.97333 4.78928 2.27382 4.9563L2.34806 4.78928C2.19605 4.62226 1.97333 4.45912 1.97333 3.96193C1.97333 3.63177 2.27382 3.05302 3.02681 3.05302C3.70202 3.05302 4.60702 3.38318 5.80898 3.79491C6.86245 4.12507 7.99017 4.37367 8.59115 4.45523V7.01884L7.46343 8.09478V8.17634L8.59115 9.25228V12.8064C7.99017 13.2181 7.31142 13.3036 6.71044 13.3036C5.58273 13.3036 4.60349 12.9734 3.77626 11.9829L6.85892 10.3321V4.63003L3.09751 6.44785C3.398 5.37192 4.22523 4.63003 5.05245 4.13284L4.97821 3.88425C2.72278 4.54457 0.693604 6.85958 0.693604 9.6679C0.693604 12.9734 3.17528 15.4515 5.95745 15.4515C8.96587 15.4515 10.9208 12.8064 10.9208 10.0796H10.7688C10.3163 11.1556 9.64109 12.146 8.81386 12.6432V9.25617L10.0158 8.18023V8.09866L8.81386 7.02272V4.45912C9.94158 4.45912 11.0693 3.63177 11.0693 2.06254L11.0728 2.06642ZM4.52925 11.1556L3.62778 11.6527C3.10105 10.9109 2.80056 9.91649 2.80056 8.51428C2.80056 7.93552 2.80056 7.2752 2.95257 6.77802L4.53278 6.03612V11.1594L4.52925 11.1556ZM12.501 13.055L11.5218 13.8823L11.6738 14.0493L12.1263 13.6376L13.7808 15.2884L16.0362 13.6376L15.9619 13.4706L15.361 13.8823L14.608 13.055V7.43445L15.209 6.93727L16.4887 8.09478V13.1365C16.4887 16.275 15.8877 16.7722 14.608 17.2694V17.518C16.7149 17.5995 18.6699 16.8576 18.6699 12.8064V7.35288L19.3451 6.77413L19.1931 6.60711L18.5921 7.10429L16.7114 5.36803L14.6044 7.10429V0.330161H14.4524L11.8187 2.31501V2.48204C12.1192 2.64906 12.5717 2.8122 12.5717 3.72111L12.4975 13.0588L12.501 13.055ZM26.2634 12.146L24.3827 13.7153L22.502 12.0645V11.074L26.0371 8.42882V8.34725L24.2307 5.37192L20.3208 7.68693V13.1404L19.5678 13.8007L19.7198 13.9678L20.395 13.389L22.951 15.4554L26.3341 12.4801L26.2599 12.1499L26.2634 12.146ZM22.5055 10.7438V6.69645L22.6575 6.61488L24.312 9.50864L22.5055 10.7477V10.7438ZM40.6303 1.32064C40.6303 1.07205 40.556 0.823461 40.4783 0.578753H40.3263C40.1 1.23908 39.7995 1.56924 39.0465 1.56924C38.3713 1.56924 37.9188 1.15751 37.6183 0.827345L35.4371 3.55409L35.5891 3.72111L36.3421 2.97922C36.7946 3.39095 37.1694 3.72111 38.2228 3.80656V10.6661L33.7862 2.3189C33.4115 1.65857 32.8848 0.74966 31.8313 0.74966C30.6293 0.74966 29.5758 1.90717 29.7243 3.725H29.9506C30.0248 3.22781 30.2511 2.64906 30.7778 2.64906C31.1525 2.64906 31.5308 3.06079 31.757 3.4764V6.20315C30.4031 6.20315 29.5016 6.86347 29.5016 8.10254C29.5016 8.76287 29.8021 9.75335 30.7036 10.0019V9.83492C30.5515 9.6679 30.4773 9.50476 30.4773 9.25617C30.4773 8.84444 30.7778 8.51428 31.3045 8.51428H31.6793V11.9868C30.099 11.9868 28.8229 12.9773 28.8229 14.632C28.8229 16.2867 30.0248 16.947 31.3788 16.8615V16.6945C30.5515 16.6129 30.1768 16.1973 30.1768 15.6186C30.1768 14.8767 30.6293 14.5426 31.2303 14.5426C31.8313 14.5426 32.358 14.9544 32.7327 15.4515L34.9139 12.8064L34.7619 12.6393L34.2352 13.2997C33.408 12.4723 32.9555 12.2237 31.9797 12.0606V3.80268L37.9966 15.37H38.4491V3.80268C39.5768 3.72111 40.6303 2.72674 40.6303 1.32453V1.32064ZM46.1204 12.146L44.2397 13.7153L42.359 12.0645V11.074L45.8941 8.42882V8.34725L44.0877 5.37192L40.1778 7.68693V13.1404L39.4248 13.8007L39.5768 13.9678L40.252 13.389L42.8079 15.4554L46.1911 12.4801L46.1168 12.1499L46.1204 12.146ZM42.359 10.7438V6.69645L42.511 6.61488L44.1654 9.50864L42.359 10.7477V10.7438ZM58.3803 6.28083L57.8536 6.69256L56.4254 5.37192L54.7709 7.02272L55.4461 7.76462V13.9639L53.6397 12.7248V7.60148L54.2406 7.18975L52.5119 5.37192L50.8575 7.02272L51.5327 7.76462V13.7153L51.3065 13.8823L49.7262 12.6432V7.68693C49.7262 6.52942 49.1995 6.19926 48.5985 5.78753C48.0718 5.3758 47.7713 5.12721 47.7713 4.54846C47.7713 4.05127 48.2238 3.80656 48.4465 3.63954V3.47252C47.8455 3.47252 46.2653 4.13284 46.2653 5.70208C46.2653 6.52942 46.64 6.85958 47.0183 7.27132C47.3966 7.68305 47.7713 8.01321 47.7713 8.75898V13.5521L46.9441 14.2125L47.0961 14.3795L47.8491 13.7192L49.5778 15.37L51.4585 13.9639L53.5654 15.37L57.5531 12.8064V7.27132L58.5323 6.44397L58.3803 6.27695V6.28083ZM72.3689 1.73626L71.6159 2.47815L69.9615 0.827345L67.4798 2.8122V0.990484H67.2536L67.3278 14.3795C67.1015 14.3795 66.4263 14.2125 65.8996 14.0493L65.7476 2.89377C65.7476 2.06642 65.2208 0.908914 63.8669 0.908914C62.5129 0.908914 61.6114 2.06642 61.6114 3.22393H61.8377C61.9119 2.72674 62.1382 2.31501 62.5907 2.31501C63.0432 2.31501 63.4179 2.64517 63.4179 3.72111V6.94504C62.0639 7.02661 61.2367 7.85395 61.2367 8.92989C61.2367 9.59021 61.5372 10.5807 62.4387 10.5807V10.4137C62.1382 10.2467 62.0639 10.0019 62.0639 9.83492C62.0639 9.33774 62.4387 9.1746 63.0432 9.1746H63.3437V14.2979C62.216 14.7097 61.7635 15.6186 61.7635 16.6129C61.7635 18.019 62.7427 19.0095 64.2451 19.0095C65.2986 19.0095 66.2001 18.8425 67.1015 18.5978C67.8545 18.4308 68.8302 18.1861 69.2827 18.1861C69.8837 18.1861 70.11 18.5162 70.11 18.9279C70.11 19.5067 69.8837 19.7553 69.5832 19.8369V20.0039C70.7852 19.7553 71.5382 18.9279 71.5382 17.6889C71.5382 16.4498 70.4105 15.704 69.205 15.704C68.604 15.704 67.3243 15.9526 66.4228 16.1158C65.3693 16.3643 64.3158 16.5275 64.0153 16.5275C63.4886 16.5275 62.8876 16.2789 62.8876 15.4515C62.8876 14.7912 63.4144 14.2125 64.6941 14.2125C65.3693 14.2125 66.1965 14.294 67.0273 14.5426C67.9288 14.7912 68.756 15.0398 69.509 15.0398C70.6367 15.0398 71.6159 14.6281 71.6159 12.8918V2.72674L72.5174 1.8994L72.3654 1.73238L72.3689 1.73626ZM69.2863 6.77802C69.06 7.02661 68.7595 7.2752 68.3848 7.2752C68.0101 7.2752 67.6318 7.02661 67.4833 6.77802V3.14236L68.2363 2.5636L69.2898 3.63954V6.77802H69.2863ZM69.2863 9.25617C69.1343 9.08914 68.7595 8.84444 68.3848 8.84444C68.0101 8.84444 67.6318 9.09303 67.4833 9.25617V7.10818C67.6353 7.2752 68.0101 7.51991 68.3848 7.51991C68.7595 7.51991 69.1378 7.27132 69.2863 7.10818V9.25617ZM69.2863 13.1404C69.2863 13.8007 68.9115 14.4611 68.0843 14.4611H67.4833V9.58633C67.6353 9.41931 68.0101 9.1746 68.3848 9.1746C68.7595 9.1746 69.06 9.42319 69.2863 9.58633V13.1404ZM79.5877 7.27132L77.1803 5.37192L73.4966 7.68693V13.0588L72.7437 13.7192L72.8179 13.8862L73.4189 13.389L75.8263 15.3739L79.5877 12.8957V7.2752V7.27132ZM75.5258 12.4801V6.52942L77.4065 8.01709V13.8862L75.5258 12.4801ZM86.7323 5.53506H86.5803C86.354 5.70208 86.1278 5.86522 85.905 5.86522C85.6046 5.86522 85.2298 5.69819 85.0778 5.45349H84.9258L83.6461 7.02272L82.3664 5.45349L80.1109 7.10429L80.1852 7.27132L80.7861 6.85958L81.5391 7.7685V12.9734L80.5599 13.8007L80.7119 13.9678L81.1644 13.556L82.9709 15.2068L85.3041 13.4706L85.2298 13.3036L84.5546 13.7153L83.6532 12.8879V7.10429C84.0279 7.51602 84.4804 7.93164 85.0071 7.93164C86.0606 8.01321 86.6616 6.8557 86.7358 5.53506H86.7323ZM95.7575 13.4706L93.2016 15.37L89.7407 9.58633L92.2224 5.37192H92.3744C92.6749 5.70208 93.1274 6.03224 93.6541 6.03224C94.1808 6.03224 94.5556 5.70208 94.7818 5.37192H94.9338C94.8596 7.02272 93.8061 8.01709 93.0531 8.01709C92.3001 8.01709 91.9254 7.60536 91.4729 7.35677L91.2467 7.7685L95.0081 13.8823L95.7611 13.3851V13.4667L95.7575 13.4706ZM87.4853 13.055L86.506 13.8823L86.658 14.0493L87.1105 13.6376L88.765 15.2884L91.0204 13.6376L90.8684 13.4706L90.2674 13.8823L89.5144 13.055V0.330161H89.4402L86.7323 2.31501V2.48204C87.0328 2.64906 87.4853 2.73063 87.4853 3.72111V13.0588V13.055ZM108.244 2.06642C108.244 0.415615 106.816 0 105.688 0V0.248592C106.363 0.248592 106.89 0.497184 106.89 1.07594C106.89 1.4061 106.663 1.90328 105.988 1.90328C105.462 1.90328 104.334 1.57312 103.507 1.24296C102.527 0.912799 101.626 0.582637 100.873 0.582637C99.3705 0.582637 98.317 1.82171 98.317 3.22781C98.317 4.46689 99.1442 4.87862 99.4447 5.04564L99.5189 4.87862C99.2927 4.7116 99.0664 4.54846 99.0664 4.05127C99.0664 3.72111 99.3669 3.14236 100.12 3.14236C100.795 3.14236 101.7 3.47252 102.902 3.88425C103.956 4.21441 105.083 4.463 105.684 4.54457V7.10818L104.557 8.18411V8.26568L105.684 9.34162V12.8957C105.083 13.3074 104.405 13.3929 103.804 13.3929C102.676 13.3929 101.697 13.0627 100.869 12.0722L103.952 10.4214V4.63779L100.191 6.45562C100.565 5.37969 101.393 4.63779 102.146 4.05904L102.071 3.89202C99.8159 4.55234 97.7832 6.78578 97.7832 9.5941C97.7832 12.8996 100.265 15.3777 103.047 15.3777C106.055 15.3777 108.01 12.7326 108.01 10.0058H107.858C107.406 11.0818 106.731 12.0722 105.903 12.5694V9.18237L107.105 8.10643V8.02486L105.978 6.94892V4.47077C107.105 4.47077 108.233 3.64343 108.233 2.07419L108.244 2.06642ZM101.7 11.1556L100.799 11.6527C100.272 10.9109 99.9714 9.91649 99.9714 8.51428C99.9714 7.93552 100.046 7.2752 100.198 6.77802L101.778 6.03612L101.704 11.1594L101.7 11.1556ZM110.877 1.23908H110.803L109.301 2.64517V2.72674L110.58 4.29598H110.732L112.235 2.88988V2.80831L110.881 1.23908H110.877ZM113.133 13.4706L112.532 13.8823L111.779 13.055V7.35288L112.532 6.77413L112.38 6.60711L111.853 7.10429L110.499 5.36803L108.318 7.01884L108.47 7.26743L108.997 6.8557L109.672 7.76462V13.1365L108.693 13.9639L108.767 14.1309L109.294 13.7192L110.948 15.37L113.204 13.7192L113.129 13.4706H113.133ZM125.693 13.389L125.167 13.8007L124.339 12.9734V7.35288L125.092 6.69256L124.94 6.52554L124.339 7.10429L122.611 5.36803L120.355 7.10429L118.626 5.36803L116.52 7.10429L115.166 5.36803L112.984 7.01884L113.059 7.26743L113.585 6.8557L114.338 7.76462V13.1365L113.737 13.7969L115.466 15.3661L117.12 13.7153L116.445 12.9734V7.35288L117.12 6.8557L118.248 8.01321V12.9695L117.647 13.6298L119.376 15.1991L121.03 13.5483L120.355 12.8064V7.35288L120.956 6.94115L122.158 8.09866V13.055L121.631 13.6337L123.36 15.37L125.693 13.6337V13.3851V13.389ZM132.237 12.146L130.356 13.7153L128.475 12.0645V11.074L132.011 8.42882V8.34725L130.204 5.37192L126.294 7.68693V13.3074L128.928 15.3739L132.311 12.3985L132.237 12.1499V12.146ZM128.475 10.7438V6.69645L128.627 6.61488L130.282 9.50864L128.475 10.7477V10.7438ZM139.081 9.99806L137.653 8.75898C138.632 7.85007 139.007 6.61099 139.007 5.78365V5.28646H138.855C138.703 5.69819 138.402 6.11381 137.801 6.11381C137.2 6.11381 136.822 5.78365 136.447 5.28646L133.064 7.35288V10.3282L134.344 11.4042C133.064 12.6432 132.841 13.4706 132.841 14.1309C132.841 14.9582 133.216 15.537 133.821 15.7817L133.895 15.6147C133.743 15.4477 133.594 15.3661 133.594 14.9544C133.594 14.7058 133.895 14.294 134.496 14.294C135.249 14.294 135.698 14.8728 135.924 15.1214L139.159 12.9734V9.99806H139.084H139.081ZM138.254 7.51991C137.727 8.51039 136.599 9.50476 135.92 9.99806L135.093 9.25617V6.3624C135.394 7.18975 136.221 7.85007 137.048 7.85007C137.575 7.85007 137.875 7.7685 138.25 7.51991H138.254ZM136.974 14.1309C136.599 13.222 135.694 12.5617 134.793 12.5617C134.566 12.5617 133.966 12.5617 133.365 12.9734C133.739 12.3131 134.719 11.1556 135.998 10.3282L136.9 11.1556L136.974 14.1309Z" fill="white"/>
</svg>
