<svg width="43" height="20" viewBox="0 0 43 20" fill="none" xmlns="http://www.w3.org/2000/svg">
<path d="M19.714 0.27626H20.3187L20.3904 0H12.7673L12.6956 0.27626H13.8004C14.7617 0.27626 15.5468 0.932128 15.5468 2.21008C15.5468 2.93551 15.227 3.86763 14.692 5.00845L9.73978 15.6136L8.52836 1.83047C8.42178 0.759217 8.99161 0.27626 10.2379 0.27626H10.9512L11.0229 0H0.261618L0.155029 0.27626H0.831455C1.68621 0.27626 2.00803 0.794991 2.07772 1.76091L4.00246 19.5846H8.52631L16.1146 4.00676C17.2912 1.69333 18.5005 0.27626 19.7119 0.27626H19.714ZM18.8223 19.6542C18.1459 19.6542 17.7175 19.4475 17.7175 18.3424C17.7175 16.9611 18.2525 14.2323 18.8223 11.744C18.8941 12.8848 19.714 14.0237 20.9234 14.0237C21.2083 14.0237 21.4584 13.9899 21.7064 13.9541C20.5667 18.6863 20.1383 19.6542 18.8203 19.6542H18.8223ZM40.4106 10.2932C41.8352 10.2932 42.7617 9.15234 42.7617 7.8406C42.7617 6.73557 41.9418 5.90679 40.7672 5.90679C38.6662 5.90679 37.668 7.53056 35.9216 10.5018C35.5649 8.6356 34.6753 6.21882 32.4657 6.21882C29.9711 6.21882 27.087 9.67306 24.449 11.8156C23.2376 12.8173 21.9196 13.4393 20.8516 13.4393C19.7837 13.4393 19.1052 12.3681 19.1052 10.4681C19.8882 7.35963 20.2818 6.56464 21.4911 6.56464C22.3111 6.56464 22.6677 7.01381 22.6677 7.94594C22.6677 8.94763 22.4545 10.6052 21.9913 12.7119C23.1679 12.3661 24.9491 10.9152 26.4455 9.36102C25.6624 7.53056 23.9509 6.2864 21.5301 6.2864C17.0062 6.2864 13.0153 10.2236 13.0153 14.6457C13.0153 17.6846 15.2598 20 18.7506 20C24.5228 20 26.9436 15.1645 26.9436 11.7798C26.9436 11.2968 26.9087 10.951 26.8718 10.5018C27.7635 9.56971 28.9031 8.67137 29.8296 8.67137C30.8976 8.67137 31.7544 11.263 32.5722 15.1645C31.8241 15.9595 31.0759 17.4779 30.7192 17.7561C30.5758 16.3748 29.6144 15.5103 28.3681 15.5103C26.9436 15.5103 25.9822 16.822 25.9822 17.929C25.9822 19.1732 26.8739 20.002 28.0484 20.002C30.5061 20.002 31.1825 17.7561 32.7157 15.7528C33.179 17.8953 34.2838 20.002 36.1716 20.002C38.4162 20.002 40.4823 18.1357 41.5503 16.824L41.3371 16.514C40.6607 17.1698 39.9842 17.5852 39.1992 17.5852C37.8094 17.5852 36.8132 14.6835 36.0651 11.1597C36.5283 10.5734 37.2416 9.05297 37.7397 8.50045C38.0595 9.12253 38.7728 10.2971 40.4126 10.2971L40.4106 10.2932Z" fill="white"/>
</svg>
