
<svg width="199" height="58" viewBox="0 0 199 58" fill="none" xmlns="http://www.w3.org/2000/svg">
<g clip-path="url(#clip0_1_1419)">
<path d="M0.541016 52.1523V24.1523H9.74102C11.9277 24.1523 13.7277 24.5123 15.141 25.2323C16.5543 25.9523 17.5944 26.9257 18.261 28.1523C18.9544 29.379 19.301 30.7657 19.301 32.3123C19.301 33.8323 18.9677 35.2057 18.301 36.4323C17.6344 37.659 16.5943 38.6457 15.181 39.3923C13.7677 40.1123 11.9543 40.4723 9.74102 40.4723H3.90102V52.1523H0.541016ZM3.90102 37.6323H9.66102C11.901 37.6323 13.4877 37.1657 14.421 36.2323C15.381 35.2723 15.861 33.9657 15.861 32.3123C15.861 30.6323 15.381 29.3257 14.421 28.3923C13.4877 27.4323 11.901 26.9523 9.66102 26.9523H3.90102V37.6323Z" fill="white"/>
<path d="M27.7676 52.6323C26.1142 52.6323 24.7409 52.3523 23.6476 51.7923C22.5542 51.2323 21.7409 50.4857 21.2076 49.5523C20.6742 48.619 20.4076 47.6057 20.4076 46.5123C20.4076 44.4857 21.1809 42.9257 22.7276 41.8323C24.2742 40.739 26.3809 40.1923 29.0476 40.1923H34.4076V39.9523C34.4076 38.219 33.9542 36.9123 33.0476 36.0323C32.1409 35.1257 30.9276 34.6723 29.4076 34.6723C28.1009 34.6723 26.9676 35.0057 26.0076 35.6723C25.0742 36.3123 24.4876 37.259 24.2476 38.5123H20.8076C20.9409 37.0723 21.4209 35.859 22.2476 34.8723C23.1009 33.8857 24.1542 33.139 25.4076 32.6323C26.6609 32.099 27.9942 31.8323 29.4076 31.8323C32.1809 31.8323 34.2609 32.579 35.6476 34.0723C37.0609 35.539 37.7676 37.499 37.7676 39.9523V52.1523H34.7676L34.5676 48.5923C34.0076 49.7123 33.1809 50.6723 32.0876 51.4723C31.0209 52.2457 29.5809 52.6323 27.7676 52.6323ZM28.2876 49.7923C29.5676 49.7923 30.6609 49.459 31.5676 48.7923C32.5009 48.1257 33.2076 47.259 33.6876 46.1923C34.1676 45.1257 34.4076 44.0057 34.4076 42.8323V42.7923H29.3276C27.3542 42.7923 25.9542 43.139 25.1276 43.8323C24.3276 44.499 23.9276 45.339 23.9276 46.3523C23.9276 47.3923 24.3009 48.2323 25.0476 48.8723C25.8209 49.4857 26.9009 49.7923 28.2876 49.7923Z" fill="white"/>
<path d="M41.4082 52.1523V32.3123H44.4482L44.7282 36.1123C45.3415 34.8057 46.2749 33.7657 47.5282 32.9923C48.7815 32.219 50.3282 31.8323 52.1682 31.8323V35.3523H51.2482C50.0749 35.3523 48.9949 35.5657 48.0082 35.9923C47.0215 36.3923 46.2349 37.0857 45.6482 38.0723C45.0615 39.059 44.7682 40.419 44.7682 42.1523V52.1523H41.4082Z" fill="white"/>
<path d="M62.7173 52.6323C60.8239 52.6323 59.1439 52.2057 57.6773 51.3523C56.2106 50.4723 55.0506 49.259 54.1973 47.7123C53.3706 46.1657 52.9573 44.339 52.9573 42.2323C52.9573 40.1523 53.3706 38.339 54.1973 36.7923C55.0239 35.219 56.1706 34.0057 57.6373 33.1523C59.1306 32.2723 60.8506 31.8323 62.7973 31.8323C64.7173 31.8323 66.3706 32.2723 67.7573 33.1523C69.1706 34.0057 70.2506 35.139 70.9973 36.5523C71.7439 37.9657 72.1173 39.4857 72.1173 41.1123C72.1173 41.4057 72.1039 41.699 72.0773 41.9923C72.0773 42.2857 72.0773 42.619 72.0773 42.9923H56.2773C56.3573 44.5123 56.7039 45.779 57.3173 46.7923C57.9573 47.779 58.7439 48.5257 59.6773 49.0323C60.6373 49.539 61.6506 49.7923 62.7173 49.7923C64.1039 49.7923 65.2639 49.4723 66.1973 48.8323C67.1306 48.1923 67.8106 47.3257 68.2373 46.2323H71.5573C71.0239 48.0723 69.9973 49.6057 68.4773 50.8323C66.9839 52.0323 65.0639 52.6323 62.7173 52.6323ZM62.7173 34.6723C61.1173 34.6723 59.6906 35.1657 58.4373 36.1523C57.2106 37.1123 56.5039 38.5257 56.3173 40.3923H68.7973C68.7173 38.6057 68.1039 37.2057 66.9573 36.1923C65.8106 35.179 64.3973 34.6723 62.7173 34.6723Z" fill="white"/>
<path d="M75.1707 52.1523V32.3123H78.2107L78.4107 35.8723C79.0507 34.619 79.9707 33.6323 81.1707 32.9123C82.3707 32.1923 83.7307 31.8323 85.2507 31.8323C87.5974 31.8323 89.464 32.5523 90.8507 33.9923C92.264 35.4057 92.9707 37.5923 92.9707 40.5523V52.1523H89.6107V40.9123C89.6107 36.779 87.904 34.7123 84.4907 34.7123C82.784 34.7123 81.3574 35.339 80.2107 36.5923C79.0907 37.819 78.5307 39.579 78.5307 41.8723V52.1523H75.1707Z" fill="white"/>
<path d="M104.501 52.1522C102.688 52.1522 101.261 51.7122 100.221 50.8322C99.1813 49.9522 98.6613 48.3656 98.6613 46.0722V35.1522H95.2213V32.3122H98.6613L99.1013 27.5522H102.021V32.3122H107.861V35.1522H102.021V46.0722C102.021 47.3256 102.275 48.1789 102.781 48.6322C103.288 49.0589 104.181 49.2722 105.461 49.2722H107.541V52.1522H104.501Z" fill="white"/>
<path d="M122.711 39.4394V18.4395H129.521C131.981 18.4395 134.001 18.8695 135.581 19.7295C137.181 20.5895 138.361 21.8095 139.121 23.3895C139.901 24.9494 140.291 26.8094 140.291 28.9694C140.291 31.1094 139.901 32.9694 139.121 34.5494C138.361 36.1094 137.181 37.3194 135.581 38.1794C134.001 39.0194 131.981 39.4394 129.521 39.4394H122.711ZM125.891 36.7394H129.401C131.301 36.7394 132.801 36.4294 133.901 35.8094C135.021 35.1894 135.821 34.2994 136.301 33.1394C136.801 31.9794 137.051 30.5894 137.051 28.9694C137.051 27.3494 136.801 25.9494 136.301 24.7694C135.821 23.5894 135.021 22.6894 133.901 22.0694C132.801 21.4295 131.301 21.1095 129.401 21.1095H125.891V36.7394Z" fill="white"/>
<path d="M147.675 39.7995C146.415 39.7995 145.375 39.5895 144.555 39.1695C143.735 38.7495 143.125 38.1995 142.725 37.5195C142.325 36.8195 142.125 36.0595 142.125 35.2395C142.125 33.7995 142.685 32.6595 143.805 31.8195C144.925 30.9795 146.525 30.5595 148.605 30.5595H152.505V30.2895C152.505 29.1295 152.185 28.2595 151.545 27.6795C150.925 27.0995 150.115 26.8095 149.115 26.8095C148.235 26.8095 147.465 27.0295 146.805 27.4695C146.165 27.8895 145.775 28.5195 145.635 29.3595H142.455C142.555 28.2795 142.915 27.3595 143.535 26.5995C144.175 25.8195 144.975 25.2295 145.935 24.8295C146.915 24.4095 147.985 24.1995 149.145 24.1995C151.225 24.1995 152.835 24.7495 153.975 25.8495C155.115 26.9295 155.685 28.4095 155.685 30.2895V39.4395H152.925L152.655 36.8895C152.235 37.7095 151.625 38.3995 150.825 38.9595C150.025 39.5195 148.975 39.7995 147.675 39.7995ZM148.305 37.2195C149.165 37.2195 149.885 37.0195 150.465 36.6195C151.065 36.1995 151.525 35.6495 151.845 34.9695C152.185 34.2895 152.395 33.5395 152.475 32.7195H148.935C147.675 32.7195 146.775 32.9395 146.235 33.3795C145.715 33.8195 145.455 34.3695 145.455 35.0295C145.455 35.7095 145.705 36.2495 146.205 36.6495C146.725 37.0295 147.425 37.2195 148.305 37.2195Z" fill="white"/>
<path d="M164.29 39.4394C162.83 39.4394 161.67 39.0894 160.81 38.3894C159.95 37.6694 159.52 36.3994 159.52 34.5794V27.2294H156.97V24.5594H159.52L159.91 20.7795H162.7V24.5594H166.9V27.2294H162.7V34.5794C162.7 35.3994 162.87 35.9694 163.21 36.2894C163.57 36.5894 164.18 36.7394 165.04 36.7394H166.75V39.4394H164.29Z" fill="white"/>
<path d="M174.168 39.7995C172.908 39.7995 171.868 39.5895 171.048 39.1695C170.228 38.7495 169.618 38.1995 169.218 37.5195C168.818 36.8195 168.618 36.0595 168.618 35.2395C168.618 33.7995 169.178 32.6595 170.298 31.8195C171.418 30.9795 173.018 30.5595 175.098 30.5595H178.998V30.2895C178.998 29.1295 178.678 28.2595 178.038 27.6795C177.418 27.0995 176.608 26.8095 175.608 26.8095C174.728 26.8095 173.958 27.0295 173.298 27.4695C172.658 27.8895 172.268 28.5195 172.128 29.3595H168.948C169.048 28.2795 169.408 27.3595 170.028 26.5995C170.668 25.8195 171.468 25.2295 172.428 24.8295C173.408 24.4095 174.478 24.1995 175.638 24.1995C177.718 24.1995 179.328 24.7495 180.468 25.8495C181.608 26.9295 182.178 28.4095 182.178 30.2895V39.4395H179.418L179.148 36.8895C178.728 37.7095 178.118 38.3995 177.318 38.9595C176.518 39.5195 175.468 39.7995 174.168 39.7995ZM174.798 37.2195C175.658 37.2195 176.378 37.0195 176.958 36.6195C177.558 36.1995 178.018 35.6495 178.338 34.9695C178.678 34.2895 178.888 33.5395 178.968 32.7195H175.428C174.168 32.7195 173.268 32.9395 172.728 33.3795C172.208 33.8195 171.948 34.3695 171.948 35.0295C171.948 35.7095 172.198 36.2495 172.698 36.6495C173.218 37.0295 173.918 37.2195 174.798 37.2195Z" fill="white"/>
<path fill-rule="evenodd" clip-rule="evenodd" d="M163.963 54.4373C175.408 50.7338 185.89 44.2431 192.485 35.4683C192.651 35.2475 192.606 34.9341 192.386 34.7682C192.165 34.6023 191.851 34.6467 191.685 34.8675C185.247 43.4344 174.962 49.8268 163.655 53.4859C152.35 57.1446 140.075 58.0533 129.693 55.7062C121.456 53.8438 115.771 47.2304 113.364 39.3826C110.956 31.5307 111.86 22.5331 116.701 15.9928C123.971 6.17165 137.542 2.45325 149.352 1.38109C160.68 0.352747 171.967 1.0918 181.485 7.54696C188.784 12.4974 195.794 19.8994 196.895 28.7627C197.361 32.5093 196.965 36.6902 195.503 40.1769C193.998 43.7663 191.622 46.2793 188.858 48.4834C187.473 49.5879 185.997 50.6099 184.483 51.6543L184.356 51.7415C182.886 52.755 181.383 53.7915 179.921 54.9327C179.703 55.1027 179.665 55.4169 179.835 55.6345C180.005 55.8522 180.319 55.8909 180.536 55.721C181.975 54.5983 183.456 53.5766 184.933 52.5587L185.05 52.4775C186.561 51.4357 188.065 50.3947 189.482 49.2652C192.321 47.0013 194.832 44.3625 196.425 40.5635C197.966 36.8883 198.37 32.5269 197.887 28.6395C196.733 19.3443 189.427 11.7248 182.046 6.71934C172.241 0.0691128 160.668 -0.650293 149.262 0.385187C137.392 1.46276 123.436 5.21355 115.897 15.3978C110.834 22.239 109.925 31.5794 112.408 39.6758C114.892 47.7762 120.802 54.7213 129.473 56.6816C140.058 59.0748 152.517 58.1414 163.963 54.4373Z" fill="white"/>
</g>
<defs>
<clipPath id="clip0_1_1419">
<rect width="199" height="58" fill="white"/>
</clipPath>
</defs>
</svg>
