<svg width="82" height="20" viewBox="0 0 82 20" fill="none" xmlns="http://www.w3.org/2000/svg">
<g clip-path="url(#clip0_1_1154)">
<path d="M37.2957 18.0298C36.5804 18.585 33.7485 19.9978 30.5272 19.9978C24.8233 19.9978 21.3438 15.5894 21.3438 9.96977C21.3438 4.35016 25.2148 0 31.0944 0C33.6025 0 35.9348 0.741072 37.2026 1.28288L37.7275 5.5614L37.4587 5.64648C35.4756 2.20978 33.7908 0.810478 30.8637 0.810478C25.9281 0.810478 23.7164 4.71958 23.7164 9.96754C23.7164 15.2155 25.8731 19.1828 30.5928 19.1828C34.193 19.1828 36.0809 16.9014 37.537 13.2766L37.8333 13.3617L37.2936 18.0253L37.2957 18.0298ZM45.2791 13.3371V4.49345C45.2791 2.61055 45.1035 1.84037 44.2399 0.427628V0.371656H48.3523V0.427628C47.6115 1.65454 47.3406 2.61055 47.3406 4.49345V13.252C47.3406 17.5887 49.5523 19.1291 52.3969 19.1291C56.2933 19.1291 57.5082 16.2185 57.5082 13.0102V4.95018C57.5082 2.88145 57.2119 2.01276 55.7409 0.414195V0.358222H59.8131L59.8935 0.414195C58.5982 2.01276 58.3019 2.88145 58.3019 4.95018V12.9811C58.3019 16.7335 56.7653 19.9575 52.0455 19.9575C48.3777 19.9709 45.277 18.0611 45.277 13.3393M75.0539 19.5992H71.0093V19.5433C71.8326 18.2022 72.0061 17.4454 72.0061 15.6633V1.09929L68.7827 1.20004C67.8917 1.25602 66.3953 3.88223 65.3032 5.57931L65.0344 5.47856L66.0059 0.385089H80.0446L81.0414 5.47856L80.7451 5.57931C79.653 3.86656 78.1969 1.24258 77.2656 1.20004L74.0697 1.09929V15.6633C74.0697 17.4745 74.2454 18.2022 75.0666 19.5433L75.0539 19.5992ZM0.375732 14.1072H16.3425V13.8498H0.375732V14.1072Z" fill="white"/>
<path d="M2.82873 11.3691H1.48053V11.3557C1.66889 10.9281 1.73662 10.6997 1.73662 10.1153V7.06374L1.26465 7.09284C0.981036 7.12195 0.523874 7.84959 0.240265 8.27721L0.132324 8.23467L0.360905 6.83761H3.96105L4.18963 8.23467L4.08169 8.27721C3.77057 7.84959 3.35362 7.12195 3.05731 7.09284L2.58533 7.06374V10.1153C2.58533 10.6863 2.63825 10.9281 2.82873 11.3714V11.3691ZM7.61622 11.3691H6.26802V11.3557C6.45639 10.9281 6.51142 10.6997 6.51142 10.1153V8.08915C6.51142 7.5048 6.45851 7.27643 6.26802 6.8488V6.83537H7.61622V6.8488C7.42786 7.27643 7.36013 7.5048 7.36013 8.07571V8.91754H9.23534V8.08915C9.23534 7.51823 9.18243 7.27643 8.97924 6.8488V6.83537H10.3274V6.8488C10.1391 7.27643 10.0714 7.5048 10.0714 8.07571V10.1153C10.0714 10.6863 10.1391 10.9146 10.3274 11.3423V11.3557H8.97924V11.3423C9.18243 10.9146 9.23534 10.6863 9.23534 10.1019V9.15934H7.36013V10.1153C7.36013 10.6863 7.42786 10.9281 7.61622 11.3714V11.3691ZM15.788 11.3691H12.645V11.3557C12.8059 10.9281 12.8884 10.6863 12.8884 10.1713V8.03094C12.8884 7.51823 12.808 7.27419 12.645 6.84656V6.83313H15.5171L15.7457 8.0175L15.6377 8.06004C15.3414 7.7466 14.9372 7.13314 14.6662 7.11747L13.735 7.07493V8.95784H14.1795C14.4631 8.95784 14.7319 8.55931 14.8948 8.33095H15.0155V9.85787H14.8948C14.734 9.6295 14.4631 9.23098 14.1795 9.23098H13.7477V11.1564L14.7446 11.1139C15.1763 11.1005 15.6483 10.4154 15.9573 9.94519L16.0652 9.98773C16.0652 9.97429 15.7816 11.3714 15.7816 11.3714L15.788 11.3691Z" fill="white"/>
</g>
<defs>
<clipPath id="clip0_1_1154">
<rect width="80.9091" height="20" fill="white" transform="translate(0.132324)"/>
</clipPath>
</defs>
</svg>
