<svg width="62" height="20" viewBox="0 0 62 20" fill="none" xmlns="http://www.w3.org/2000/svg">
<g clip-path="url(#clip0_1_1143)">
<path d="M0.526245 0V20H20.7885V0H0.526245ZM15.2244 15.4323L12.7784 15.4198V9.36343C12.7784 8.47301 12.6112 7.8216 12.2659 7.40139C11.9207 6.98118 11.3711 6.78747 10.5955 6.78747C10.1898 6.79997 9.80745 6.90776 9.44982 7.08896C9.07981 7.25767 8.74541 7.52168 8.49461 7.84816V15.4339H6.07174V4.89729H7.82581L8.27942 5.88456C8.93583 5.11443 9.91427 4.72858 11.2147 4.72858C12.5152 4.72858 13.4348 5.10193 14.15 5.84863C14.8653 6.59533 15.2244 7.64196 15.2244 8.97915V15.4323Z" fill="white"/>
<path d="M21.1338 0V20H41.492V0H21.1338ZM34.8892 14.2295C33.9696 15.1574 32.7047 15.626 31.1179 15.626C30.4026 15.6385 29.6858 15.4823 29.0294 15.1683V18.2145H26.6065V4.89729H29.0402V5.59556C29.6363 5.00508 30.449 4.69265 31.2835 4.71608C34.6136 4.71608 36.2717 6.55784 36.2717 10.2554C36.2717 11.9769 35.8057 13.3016 34.8876 14.2295H34.8892Z" fill="white"/>
<path d="M30.5806 6.81091C29.9954 6.82341 29.435 7.06398 29.0417 7.49669V13.011C29.4706 13.3719 30.0202 13.5656 30.5806 13.5531C31.703 13.5531 32.5019 13.2875 32.9911 12.747C33.4679 12.205 33.7187 11.363 33.7187 10.1945C33.7187 8.95416 33.4803 8.07468 32.9911 7.57011C32.5019 7.06398 31.703 6.81091 30.5806 6.81091Z" fill="white"/>
<path d="M41.8357 0V20H61.8596V0H41.8357ZM54.7086 7.19675C54.2798 6.92025 53.789 6.77497 53.289 6.78747C52.7285 6.78747 52.2269 7.04054 51.7965 7.5576C51.3553 8.08717 51.1169 8.76201 51.1401 9.44779V15.4198H48.7064V4.89729H51.1401V5.90799C51.8198 5.12536 52.7146 4.72858 53.8494 4.72858C54.673 4.72858 55.3047 4.86136 55.7474 5.11443L54.7086 7.19675Z" fill="white"/>
</g>
<defs>
<clipPath id="clip0_1_1143">
<rect width="61.3333" height="20" fill="white" transform="translate(0.526245)"/>
</clipPath>
</defs>
</svg>
