<svg width="169" height="20" viewBox="0 0 169 20" fill="none" xmlns="http://www.w3.org/2000/svg">
<path d="M15.8691 0.531704H18.3707V8.06301H24.7744V0.531704H26.677V19.0961H24.7744V9.12294H18.3707V19.0961H15.8691V0.531704ZM43.6396 19.1498H45.0402V4.24369L56.0969 19.4136V0.585371H54.747V12.6784L45.7911 0.585371H43.6396V19.1498ZM58.4509 19.1498H68.7567L70.056 16.3367C70.056 16.3367 68.2547 17.8752 64.7533 17.8752H61.1507V9.28394H63.7535C65.2047 9.28394 65.8037 10.2365 65.8037 10.2365V7.47714C65.3017 8.00934 65.1035 8.16587 63.7535 8.16587H61.1507V1.6453H62.7031C64.7027 1.6453 65.7573 2.7589 65.7573 2.7589L64.8588 0.585371H58.4551V19.1498H58.4509ZM147.268 19.1498H154.173L155.726 16.9226C155.726 16.9226 154.523 17.9288 151.473 17.9288H149.773V9.17661H152.625C154.076 9.17661 154.376 9.81167 154.376 9.81167V7.63814C153.975 8.06301 153.675 8.17035 152.625 8.17035H149.773V1.6453H152.123C154.325 1.6453 155.325 2.7589 155.325 2.7589L154.426 0.585371H147.322L147.272 19.1498H147.268ZM29.0309 19.0961H35.9366L37.489 16.8689C37.489 16.8689 36.2867 17.8752 33.2368 17.8752H31.5367V9.17661H34.3884C35.8396 9.17661 36.1391 9.81167 36.1391 9.81167V7.58448C35.7383 8.00934 35.4388 8.11668 34.3884 8.11668H31.5367V1.59163H33.8864C36.0885 1.59163 37.0883 2.70523 37.0883 2.70523L36.1897 0.531704H29.0857L29.0351 19.0961H29.0309ZM8.76512 1.75263H10.9672C13.3169 1.75263 14.3715 2.86623 14.3715 2.86623L13.4224 0.585371H1.80879L0.859619 2.86623C0.859619 2.86623 1.91003 1.75263 4.26396 1.75263H6.36479V19.1006H8.86637L8.76512 1.75263ZM74.4137 19.3108L77.0672 13.2106L79.7712 19.2571L87.5713 0.531704H86.0189L80.3661 14.1632L78.4635 9.76247L82.1674 0.531704H80.8681L77.7674 7.79915L74.515 0.531704H71.9121L76.3669 11.3009L75.1646 14.1677L69.3599 0.536176H66.6559L74.4095 19.3152L74.4137 19.3108ZM102.032 10.0263C102.032 15.0129 105.736 19.9995 111.988 19.9995C118.24 19.9995 121.543 15.9163 121.543 9.49861C121.547 4.50755 117.894 -0.000496685 111.84 -0.000496685C105.985 -0.0541639 102.032 4.40022 102.032 10.0263ZM111.739 1.00576C116.493 1.00576 118.944 5.88501 118.944 9.70433C118.944 14.4762 116.991 18.6712 112.191 18.6712C106.939 18.6712 104.635 13.8993 104.635 9.5478C104.635 3.81882 108.436 1.00576 111.739 1.00576ZM123.597 19.1498H126.15V1.59163H127.301C127.951 1.59163 129.554 2.0165 129.554 4.82956C129.554 7.79915 127.251 8.33135 127.251 8.33135V8.70255C128.352 8.70255 129.702 8.80988 129.702 14.114C129.702 17.7723 130.904 19.3644 132.503 19.3644C134.102 19.3644 134.806 18.1972 134.903 18.0362L134.553 17.7723C134.401 18.0362 133.954 18.461 133.351 18.461C132.6 18.461 131.748 17.1328 131.748 13.6355C131.748 10.1381 130.849 8.80988 128.343 8.38501C129.693 7.90648 131.748 7.16408 131.748 4.30183C131.748 1.85997 129.946 0.536176 127.795 0.536176H123.69L123.589 19.1542L123.597 19.1498ZM156.823 19.1498H159.375V1.59163H160.526C161.176 1.59163 162.779 2.0165 162.779 4.82956C162.779 7.79915 160.476 8.33135 160.476 8.33135V8.70255C161.577 8.70255 162.927 8.80988 162.927 14.114C162.927 17.7723 164.129 19.3644 165.728 19.3644C167.327 19.3644 168.031 18.1972 168.128 18.0362L167.778 17.7723C167.626 18.0362 167.179 18.461 166.576 18.461C165.825 18.461 164.973 17.1328 164.973 13.6355C164.973 10.1381 164.074 8.80988 161.568 8.38501C162.918 7.90648 164.973 7.16408 164.973 4.30183C164.973 1.85997 163.171 0.536176 161.02 0.536176H156.915L156.814 19.1542L156.823 19.1498ZM143.163 12.9959C143.163 8.75174 142.311 6.78841 139.809 6.31435L144.665 0.585371H143.015L138.413 6.05049V0.585371H135.911L135.861 19.1498H138.413V6.89575H138.961C139.413 6.89575 140.412 7.53081 140.661 8.43421C141.011 9.5478 141.113 11.2473 141.113 13.4745V14.2169C141.113 17.8752 142.315 19.4673 143.914 19.4673C145.513 19.4673 146.217 18.3 146.314 18.139L145.964 17.8752C145.812 18.139 145.365 18.5639 144.762 18.5639C144.011 18.5639 143.159 17.2356 143.159 13.7383V12.9959H143.163ZM98.4298 19.1498V9.5478L103.285 0.580899H101.682L97.0292 9.12294L92.3762 0.580899H90.7731L95.6287 9.5478V19.1498H98.4298Z" fill="white"/>
</svg>
