<svg width="58" height="20" viewBox="0 0 58 20" fill="none" xmlns="http://www.w3.org/2000/svg">
<path d="M16.1885 19.2179C15.8911 19.2179 15.7073 19.0236 15.7073 18.6317C15.7073 18.4358 15.754 18.1435 15.8226 17.8745L17.9762 8.93728H19.7405L19.809 8.64496H18.0447L18.9603 4.88379H17.3097L16.3925 8.64496H15.0408L14.9723 8.93728H16.324L14.3308 17.265C14.2155 17.7299 14.0785 18.1933 14.0785 18.8043C14.0785 19.4154 14.4226 20 15.3616 20C17.1041 20 17.8594 17.7299 17.9964 17.4112L17.7675 17.3132C17.6071 17.7035 16.9422 19.2179 16.187 19.2179H16.1885Z" fill="white"/>
<path d="M7.5258 6.51945C8.2826 6.51945 8.64854 5.59276 8.71706 5.39685L8.58003 5.32377C8.44299 5.66584 8.14401 6.22714 7.64103 6.22714C7.3436 6.22714 7.18321 6.0079 7.18321 5.61608C7.18321 5.34709 7.22837 5.07966 7.27509 4.85887C7.98517 4.68784 9.17644 4.05346 9.17644 3.17342C9.17644 2.78315 8.97089 2.51416 8.48815 2.51416C7.59431 2.51416 6.63196 4.0519 6.63196 5.51813C6.63196 6.05455 6.83751 6.51945 7.5258 6.51945ZM8.48815 2.68519C8.69526 2.68519 8.76378 2.78315 8.76378 2.97906C8.76378 3.61344 8.14557 4.4204 7.32024 4.66451C7.52735 3.63831 8.05369 2.68675 8.48971 2.68675L8.48815 2.68519Z" fill="white"/>
<path d="M3.31042 6.44644H3.88348L4.47989 4.00533C4.64028 3.37096 4.98442 2.8081 5.35037 2.8081C5.57928 2.8081 5.64935 2.97913 5.64935 3.10197C5.64935 3.24812 5.60264 3.44403 5.55748 3.61507L5.09966 5.49488C5.07786 5.56795 5.00778 5.88514 5.00778 6.05618C5.00778 6.30029 5.12302 6.51952 5.44224 6.51952C6.03866 6.51952 6.29092 5.78719 6.35944 5.61615L6.24421 5.56795C6.17569 5.73899 5.97014 6.20233 5.71787 6.20233C5.62599 6.20233 5.57928 6.15413 5.57928 6.00642C5.57928 5.88359 5.626 5.64103 5.64935 5.54308L6.10717 3.71147C6.15389 3.51556 6.19905 3.3212 6.19905 3.10041C6.19905 2.83142 6.03866 2.51423 5.58084 2.51423C5.09966 2.51423 4.77887 2.97758 4.687 3.12529L5.28185 0.659302H4.3195L4.27278 0.830335H4.66208L3.31042 6.44644Z" fill="white"/>
<path d="M2.07241 6.27541H1.52272L2.82766 0.830335H3.05657C3.65298 0.830335 3.79001 0.903413 3.60626 2.00269H3.7433L4.06408 0.659302H0.994823L0.674038 2.00269H0.811073C1.15522 1.07445 1.29225 0.830335 1.91202 0.830335H2.18609L0.87959 6.27541H0.376611L0.329895 6.44644H2.0257L2.07086 6.27541H2.07241Z" fill="white"/>
<path d="M55.304 8.39929C53.3326 8.39929 52.3017 9.88884 51.7053 11.7935C51.316 13.0156 50.6978 14.9918 50.6978 17.1904C50.6978 18.313 51.179 19.9985 53.2641 19.9985C55.3492 19.9985 56.3801 17.0924 56.5171 16.7504L56.2197 16.6042C55.9223 17.3614 55.1187 19.3641 53.7219 19.3641C52.8281 19.3641 52.3469 18.6317 52.3469 17.2635C52.3469 15.2857 52.92 13.2349 53.4245 11.6225C54.0427 9.64472 54.432 8.71648 55.3492 8.71648C55.9456 8.71648 56.3116 9.00879 56.3116 9.40061C56.3116 9.96191 55.9674 10.2309 55.9674 10.744C55.9674 11.2089 56.2882 11.5494 56.7009 11.5494C57.2054 11.5494 57.5262 11.1094 57.5262 10.4019C57.5262 9.69448 57.1369 8.39929 55.304 8.39929Z" fill="white"/>
<path d="M38.9425 19.2179C38.5298 19.2179 38.4379 18.9738 38.4379 18.6566C38.4379 18.4125 38.4831 18.1435 38.5532 17.876L40.02 11.8199C40.1571 11.2586 40.2957 10.7704 40.2957 10.1111C40.2957 9.37881 39.8379 8.45056 38.5314 8.45056C37.0427 8.45056 36.2391 9.74419 35.9199 10.307L36.3092 8.64647H33.1699L33.078 8.93878H34.5667L31.9553 19.7807H33.6059L35.3936 12.4294C35.8062 10.7688 36.7686 9.06006 37.868 9.06006C38.5329 9.06006 38.7385 9.52341 38.7385 9.96343C38.7385 10.3537 38.6232 10.7688 38.5096 11.2571L37.066 17.265C36.9741 17.6553 36.8138 18.3394 36.8138 18.8043C36.8138 19.4635 37.2264 20.0015 38.1421 20.0015C39.7927 20.0015 40.6165 17.6817 40.7317 17.4127L40.5028 17.3147C40.2739 17.803 39.6541 19.2194 38.944 19.2194L38.9425 19.2179Z" fill="white"/>
<path d="M49.8959 4.4935C49.3462 4.4935 48.9569 4.95684 48.9569 5.6161C48.9569 6.15252 49.3011 6.59254 49.8056 6.59254C50.3101 6.59254 50.7446 6.1292 50.7446 5.49327C50.7446 4.93197 50.4004 4.49194 49.8975 4.49194L49.8959 4.4935Z" fill="white"/>
<path d="M46.2302 4.88376H44.5796L43.6857 8.64493H42.1737L42.1051 8.93724H43.6172L41.624 17.265C41.5103 17.7283 41.3717 18.2166 41.3717 18.7545C41.3717 19.4138 41.7844 20 42.7 20C44.3506 20 45.1744 17.6802 45.2663 17.4112L45.0374 17.3132C44.877 17.7035 44.2354 19.2179 43.4568 19.2179C43.136 19.2179 42.999 19.0235 42.999 18.6317C42.999 18.3876 43.0441 18.1435 43.1142 17.8745L45.2445 8.93724H48.2686L46.252 17.265C46.1368 17.7035 45.9997 18.2414 45.9997 18.7063C45.9997 19.3905 46.4124 20 47.3514 20C49.0005 20 49.8258 17.6802 49.9177 17.4112L49.6888 17.3132C49.5284 17.6801 48.865 19.2179 48.13 19.2179C47.7173 19.2179 47.6488 18.9738 47.6488 18.6068C47.6488 18.3627 47.6955 18.1435 47.764 17.8745L49.9644 8.64338H45.3364L46.2302 4.8822V4.88376Z" fill="white"/>
<path d="M30.1208 8.64496L29.8452 9.84064C29.7767 9.59652 29.5712 8.39929 28.1043 8.39929C26.1562 8.39929 25.1938 10.1081 24.5756 11.8184C24.2097 12.8446 23.4529 15.4085 23.4077 17.1422C23.3376 18.9987 24.1863 19.9985 25.5162 19.9985C26.776 19.9985 27.5779 18.6551 27.8769 17.9709C27.8536 18.0689 27.8084 18.4358 27.8084 18.7033C27.785 19.3874 28.2429 19.9969 29.1367 19.9969C30.8559 19.9969 31.6111 17.6522 31.703 17.4081L31.4741 17.3101C31.3137 17.7004 30.6955 19.2148 29.8935 19.2148C29.5494 19.2148 29.4123 18.9707 29.4357 18.5556C29.4357 18.3845 29.4824 18.1404 29.5509 17.8714L31.773 8.64029H30.124L30.1208 8.64496ZM28.2413 16.2637C27.715 18.0456 26.8896 19.4138 25.9039 19.4138C25.2156 19.4138 24.8964 18.9738 24.9182 17.9974C24.9867 15.8237 26.1796 11.9412 26.4536 11.0861C26.9114 9.64472 27.5546 8.81599 28.3783 8.81599C29.1351 8.81599 29.5011 9.52345 29.4793 10.3304C29.4326 11.5261 28.9062 13.9206 28.2413 16.2637Z" fill="white"/>
<path d="M20.885 19.2179C20.5409 19.2179 20.4272 19.022 20.4272 18.6317C20.4272 18.3876 20.4506 18.1684 20.5191 17.8745L24.7812 0.390259H21.5967L21.5282 0.684125H23.0169L19.0304 17.265C18.9152 17.7532 18.7781 18.2663 18.7781 18.8043C18.7781 19.4154 19.1223 20 20.0613 20C21.7571 20 22.5824 17.7532 22.6961 17.4112L22.4672 17.3132C22.3068 17.7284 21.6185 19.2179 20.8866 19.2179H20.885Z" fill="white"/>
<path d="M13.7126 0L1.27046 19.4869H0.261388L0.192871 19.7808H3.30885L3.37736 19.4869H1.6364L6.40925 12.0143H10.8629L10.0687 19.4869H8.6018L8.53328 19.7808H13.071L13.1395 19.4869H11.8564L13.9197 0H13.7126ZM10.8971 11.6971H6.61169L11.696 3.7363H11.7427L10.8971 11.6971Z" fill="white"/>
</svg>
