<svg width="68" height="20" viewBox="0 0 68 20" fill="none" xmlns="http://www.w3.org/2000/svg">
<g clip-path="url(#clip0_1_1126)">
<path d="M32.1825 0C32.1825 0 31.4286 0.0159569 30.9925 0.00797846C30.9742 0.187494 30.7643 1.8131 30.583 3.11958C30.3751 4.32831 28.7267 13.3021 28.1663 15.9888C28.0196 16.8006 27.5652 19.0905 27.5225 19.3198C26.9967 19.3817 26.3773 19.4375 25.9739 19.4535C25.9188 19.4535 25.8292 19.4734 25.7864 19.4734V19.9382C25.8353 19.9382 26.0982 19.9561 26.2836 19.9481C26.7298 19.9342 27.9931 19.8763 28.2336 19.8763C29.1424 19.8763 29.7496 19.9362 30.5911 19.9521C30.6034 19.9521 30.8336 19.9521 30.9355 19.9382V19.4674C30.8662 19.4674 30.7725 19.4654 30.7175 19.4654C30.4791 19.4734 29.6049 19.4076 29.1607 19.3478C29.2137 19.0406 29.986 14.3931 30.3568 12.5342C31.0618 9.09345 31.5508 6.65603 31.5508 6.65603L31.6813 6.95921L37.2583 19.9681L38.2771 19.9741C38.2771 19.9741 38.8578 18.5659 39.5485 16.9861C39.5669 16.9482 39.6158 16.8365 39.6871 16.673C40.4105 15.0314 43.9987 6.7039 43.9987 6.7039C43.9987 6.7039 44.0334 6.8535 44.0884 7.12277C44.4307 8.75436 45.586 14.6365 45.8326 16.0566C45.9487 16.7867 46.0567 17.5267 46.1199 17.9615C46.2136 18.5758 46.2727 19.1762 46.2727 19.3498C46.1586 19.3557 45.0237 19.4555 44.5937 19.4734C44.5326 19.4734 44.4164 19.4774 44.4103 19.4774V19.9501C44.5632 19.9501 44.7139 19.9561 44.8627 19.9541C45.7409 19.9382 46.5845 19.8704 47.4627 19.8704C48.4489 19.8704 50.0485 19.9561 51.0734 19.9621C51.1895 19.9621 51.3953 19.9521 51.3953 19.9521V19.4734C51.3362 19.4734 51.0795 19.4615 50.9837 19.4535C50.5253 19.4176 49.751 19.3478 49.5533 19.3358C49.5533 19.3358 49.427 18.6496 49.2599 17.8558C48.5895 14.6804 46.6843 5.03042 46.3909 2.65683C46.2911 1.84103 46.0078 0.00797846 46.0078 0.00797846H44.8607C44.8607 0.00797846 44.2738 1.65354 43.74 3.15349C43.3752 4.17872 42.8801 5.4453 42.5031 6.41468C40.6387 11.2097 38.5481 15.6777 38.5481 15.6777C38.5481 15.6777 34.106 5.30169 33.8697 4.70131C33.6353 4.10093 32.1825 0 32.1825 0ZM0.246737 0.00398923L0.256925 1.10103L0.238586 3.77182L0.534043 3.76384L0.564607 1.38825C0.564607 1.38825 2.18452 1.37429 2.3944 1.37429H5.4162L7.36622 1.38426L7.37029 17.9057V19.3318L7.32954 19.3378C7.07076 19.3577 6.07028 19.4176 5.6648 19.4315C5.5731 19.4335 5.51605 19.4375 5.50586 19.4355V19.9182C5.58125 19.9222 5.7789 19.9262 5.80539 19.9262C6.76512 19.9142 8.06512 19.8325 8.98613 19.8325C9.92141 19.8325 11.2398 19.9222 12.0548 19.9322C12.1363 19.9322 12.2321 19.9242 12.3095 19.9242V19.4714H12.2076C11.9488 19.4714 10.5123 19.3797 10.3636 19.3617C10.3575 19.1403 10.331 18.0692 10.331 18.0473L10.3371 1.38426L11.8225 1.38027H15.6981L16.992 1.40022C17.0001 1.48998 17.0653 2.69472 17.0653 2.72664C17.0633 2.8144 17.1142 3.70998 17.1122 3.93139L17.4178 3.93537L17.3954 1.23467L17.4097 0.0199461C16.2707 0.0498654 13.3691 0.087763 8.86591 0.0857684C4.99849 0.0817792 1.27574 0.0498654 0.246737 0.00398923ZM18.2859 0.00797846L18.29 0.480702C18.4428 0.488681 19.3414 0.566471 19.5594 0.576444C19.7346 0.59639 19.9771 0.618331 20.1523 0.634287C20.1523 0.785878 20.1544 1.83106 20.1585 2.24394C20.187 6.15339 20.1625 14.7961 20.1503 17.8538C20.1462 18.7374 20.1442 19.3079 20.1442 19.3079C20.0342 19.3398 19.7856 19.3518 19.5186 19.3697C19.2904 19.3857 18.4693 19.4535 18.2859 19.4555V19.9282C18.3613 19.9282 18.5019 19.9442 18.5813 19.9442C19.5105 19.9442 20.8024 19.8305 21.756 19.8325C22.7177 19.8325 24.0035 19.9481 24.7615 19.9481H24.7594C24.8246 19.9481 24.9815 19.9322 25.0467 19.9322V19.4595H24.9815C24.953 19.4535 23.9749 19.4136 23.7365 19.3896C23.6122 19.3817 23.0743 19.3358 23.0662 19.3178C23.0641 19.3079 23.0621 19.1663 23.0621 18.9309C23.0641 18.7075 23.0641 18.3345 23.0641 17.9316C23.0662 14.8479 23.0763 5.68665 23.0784 2.1861C23.0784 1.50992 23.0804 0.95941 23.0804 0.664207C23.2903 0.650244 24.1502 0.562481 24.4579 0.536551C24.4721 0.536551 24.8776 0.512616 25.0467 0.502643V0.0119677C23.9953 0.0119677 22.6036 0.0917523 21.5767 0.0917523C20.5028 0.0917523 19.1804 0.00797846 18.29 0.00797846H18.2859ZM66.9649 0.0219408C66.9649 0.0219408 66.8548 0.0219408 66.649 0.0219408C65.946 0.0239354 64.1448 0.0378977 62.0379 0.0498654C60.744 0.0578438 59.7333 0.0678169 58.4007 0.0658223C57.4675 0.0757954 56.1593 0.111698 55.3524 0.109704C54.0626 0.107709 53.0112 0.0299192 52.4386 0.0279246C52.1676 0.0279246 52.0148 0.0359031 51.9414 0.0319138C51.9455 0.0378977 51.9455 0.498654 51.9455 0.498654C51.9944 0.506632 52.0942 0.5186 52.188 0.516605C52.512 0.538546 53.1171 0.586417 53.4248 0.626309C53.4859 0.636282 53.5899 0.654234 53.8792 0.686147C53.8772 0.791862 53.8935 1.97666 53.8914 2.68874C53.8914 3.34896 53.8853 18.0712 53.8853 18.0712C53.8853 18.0951 53.8507 19.256 53.8507 19.3498C53.3392 19.4355 52.3571 19.4874 52.0229 19.4894H51.9231V19.9581C51.9699 19.9581 52.19 19.9661 52.3143 19.9661C52.8543 19.9661 54.248 19.8823 55.6703 19.8803C56.6687 19.8803 57.765 19.9162 58.8755 19.9322C60.2448 19.9501 61.6283 19.9521 62.8733 19.9681C64.9252 19.996 66.5879 19.998 67.1279 20C67.1279 20 67.1931 16.2741 67.1931 15.9749L66.8976 15.9789C66.8976 16.296 66.7774 17.4748 66.7733 17.5267C66.7346 17.9715 66.6939 18.4362 66.6633 18.6656C66.6633 18.6656 66.5186 18.6776 66.4493 18.6756C66.1131 18.6696 65.0352 18.7075 65.0128 18.7075H60.2101L56.8378 18.6536L56.8154 17.7381V10.6273C57.4145 10.6074 58.3335 10.5754 58.8918 10.5774C59.3665 10.5774 60.4872 10.5515 61.1128 10.5535C62.6349 10.5555 63.9879 10.5655 64.0959 10.5695C64.3465 10.5774 64.8131 10.5914 64.9904 10.6014C64.9965 10.6632 65.0169 10.7609 65.0189 10.7889C65.1086 11.3334 65.1595 11.7104 65.2206 12.2449C65.2288 12.2928 65.2349 12.3387 65.241 12.3826H65.5874C65.5874 12.3826 65.5956 12.1911 65.5915 12.0734C65.5854 11.6545 65.5569 10.8188 65.5569 9.89129C65.5548 9.24903 65.5935 8.26768 65.5976 7.79495C65.5996 7.6673 65.5834 7.57555 65.5834 7.53964L65.2675 7.54563C65.2655 7.64735 65.241 7.79894 65.241 7.79894C65.2145 8.15199 65.1127 8.60078 65.0312 9.0755C65.0087 9.13533 64.9924 9.21711 64.9924 9.21711C64.9558 9.22908 63.9634 9.28094 63.8758 9.28094C63.8412 9.28094 62.3965 9.32083 62.372 9.32083L56.8154 9.30089L56.8236 1.46006C56.8236 1.46006 57.5286 1.43612 57.7262 1.43612C58.527 1.43612 59.8291 1.42814 61.1576 1.43014C63.1015 1.43213 64.9884 1.4441 64.9924 1.4461C65.0047 1.45208 65.5793 1.46006 65.5895 1.46804C65.6037 1.47801 66.323 1.49995 66.4982 1.50593C66.4982 1.50593 66.5125 1.56378 66.5207 1.63758C66.6001 2.46335 66.6653 3.44669 66.6939 3.79376V3.93338H66.9934C66.9934 3.42475 66.9669 1.86496 66.9608 0.873641C66.9587 0.554503 66.9649 0.295203 66.9649 0.147601V0.0219408Z" fill="white"/>
</g>
<defs>
<clipPath id="clip0_1_1126">
<rect width="66.9565" height="20" fill="white" transform="translate(0.236328)"/>
</clipPath>
</defs>
</svg>
