<svg width="112" height="59" viewBox="0 0 112 59" fill="none" xmlns="http://www.w3.org/2000/svg">
<g clip-path="url(#clip0_1_1219)">
<path d="M56 20.3116C76.1355 20.3116 92.4632 37.2973 92.5054 58.2679H112C111.958 26.0804 86.9012 0 56 0C25.0988 0 0.0421687 26.0804 0 58.2679H19.4946C19.5367 37.2973 35.8645 20.3116 56 20.3116Z" fill="#A8DFF2"/>
<path d="M110.48 44.7883C111.469 49.1138 111.994 53.6282 112 58.2679H92.5054C92.4991 54.6893 92.0163 51.2271 91.1223 47.9451L110.478 44.7883H110.48Z" fill="#EDC0DA"/>
<path d="M37.825 54.109C42.7 53.809 44.625 49.509 44.625 45.509C44.625 42.109 43.325 38.934 41.25 38.934C39.625 38.934 38.7 41.084 38.7 43.084C38.7 45.409 39.85 48.634 42.775 47.459L42.95 48.259C42.225 48.684 41.45 48.884 40.625 48.884C37.85 48.884 36.525 46.484 36.525 43.859C36.525 41.084 38.3 38.084 41.6 38.084C45.15 38.084 46.9 41.434 46.9 45.234C46.9 50.034 44.025 54.984 37.975 54.984L37.825 54.109ZM49.2211 49.284L49.0461 48.534L56.5711 38.434L57.8961 38.034L57.9461 38.109C57.9461 38.109 57.7461 39.059 57.7461 40.834V47.809H60.4961L60.1961 49.284H57.7461V53.409C57.7461 54.384 57.6211 54.784 57.6211 54.784L55.6961 54.984L55.5961 54.909C55.5961 54.909 55.7211 54.434 55.7211 53.534V49.284H49.2211ZM50.8461 47.809H55.7211V42.759C55.7211 42.259 55.7711 41.609 55.8211 41.134L50.8461 47.809ZM62.3771 37.459C62.3771 35.384 64.0771 33.709 66.1521 33.709C68.2271 33.709 69.9271 35.384 69.9271 37.459C69.9271 39.534 68.2271 41.209 66.1521 41.209C64.0771 41.209 62.3771 39.534 62.3771 37.459ZM63.7271 37.459C63.7271 38.834 64.8021 40.034 66.1521 40.034C67.5021 40.034 68.5771 38.834 68.5771 37.459C68.5771 36.084 67.5021 34.884 66.1521 34.884C64.8021 34.884 63.7271 36.084 63.7271 37.459ZM64.0771 50.134L75.7521 33.334L76.7271 34.009L65.5021 50.134H64.0771ZM71.2271 46.709C71.2271 44.634 72.9271 42.959 75.0021 42.959C77.0771 42.959 78.7771 44.634 78.7771 46.709C78.7771 48.784 77.0771 50.459 75.0021 50.459C72.9271 50.459 71.2271 48.784 71.2271 46.709ZM72.5771 46.709C72.5771 48.084 73.6521 49.284 75.0021 49.284C76.3521 49.284 77.4271 48.084 77.4271 46.709C77.4271 45.334 76.3521 44.134 75.0021 44.134C73.6521 44.134 72.5771 45.334 72.5771 46.709Z" fill="#282828"/>
</g>
<defs>
<clipPath id="clip0_1_1219">
<rect width="112" height="58.2679" fill="white"/>
</clipPath>
</defs>
</svg>
