<svg width="111" height="62" viewBox="0 0 111 62" fill="none" xmlns="http://www.w3.org/2000/svg">
<g clip-path="url(#clip0_0_1)">
<rect x="22" y="43.2053" width="18" height="18" fill="#D0D6FC"/>
<rect x="22" y="15.2053" width="18" height="28" fill="#EDC0DA"/>
<rect x="1" y="43.2053" width="18" height="18" fill="#D0D6FC"/>
<rect x="1" y="36.2053" width="18" height="7" fill="#EDC0DA"/>
<rect x="85" y="20.2053" width="18" height="41" fill="#D0D6FC"/>
<rect x="85" y="5.20526" width="18" height="15" fill="#EDC0DA"/>
<rect x="43" y="33.2053" width="18" height="28" fill="#D0D6FC"/>
<rect x="43" y="5.20526" width="18" height="28" fill="#EDC0DA"/>
<rect x="64" y="23.2053" width="18" height="38" fill="#D0D6FC"/>
<rect x="64" y="0.205261" width="18" height="23" fill="#EDC0DA"/>
</g>
<path d="M0.5 43.4999C0.223858 43.4999 0 43.7238 0 43.9999C0 44.2761 0.223858 44.4999 0.5 44.4999V43.4999ZM110.399 17.8011C110.565 17.5806 110.522 17.2671 110.301 17.1008L106.709 14.3907C106.488 14.2244 106.175 14.2683 106.008 14.4887C105.842 14.7092 105.886 15.0227 106.106 15.189L109.3 17.598L106.891 20.7912C106.724 21.0117 106.768 21.3252 106.989 21.4915C107.209 21.6578 107.523 21.6139 107.689 21.3935L110.399 17.8011ZM0.5 44.4999C9.87322 44.4999 33.6118 42.3953 53.6936 33.9609L53.3064 33.0389C33.3882 41.4046 9.79344 43.4999 0.5 43.4999V44.4999ZM53.6936 33.9609C73.6482 25.58 101.772 19.1567 110.069 17.9951L109.931 17.0048C101.561 18.1765 73.3518 24.6199 53.3064 33.0389L53.6936 33.9609Z" fill="#282828"/>
<defs>
<clipPath id="clip0_0_1">
<rect width="102" height="61" fill="white" transform="translate(1 0.364197)"/>
</clipPath>
</defs>
</svg>
