<svg width="112" height="70" viewBox="0 0 112 70" fill="none" xmlns="http://www.w3.org/2000/svg">
<g clip-path="url(#clip0_1_1227)">
<path d="M35.1069 21.1194C40.9196 21.1194 45.6317 16.4273 45.6317 10.6392C45.6317 4.85106 40.9196 0.158875 35.1069 0.158875C29.2942 0.158875 24.582 4.85106 24.582 10.6392C24.582 16.4273 29.2942 21.1194 35.1069 21.1194Z" fill="#EDC0DA"/>
<path d="M53.6748 42.128C53.6748 29.853 45.3619 19.9006 35.1021 19.9006C24.8423 19.9006 16.5294 29.853 16.5294 42.128H53.67H53.6748Z" fill="#EDC0DA"/>
<path d="M18.5727 48.1503C24.3854 48.1503 29.0975 43.4581 29.0975 37.67C29.0975 31.8819 24.3854 27.1898 18.5727 27.1898C12.76 27.1898 8.04785 31.8819 8.04785 37.67C8.04785 43.4581 12.76 48.1503 18.5727 48.1503Z" fill="#FCD60C"/>
<path d="M37.1406 69.1589C37.1406 56.8839 28.8277 46.9315 18.5679 46.9315C8.30807 46.9315 0 56.8839 0 69.1589H37.1406Z" fill="#FCD60C"/>
<path d="M76.1027 21.1194C81.9154 21.1194 86.6276 16.4273 86.6276 10.6392C86.6276 4.85106 81.9154 0.158875 76.1027 0.158875C70.29 0.158875 65.5779 4.85106 65.5779 10.6392C65.5779 16.4273 70.29 21.1194 76.1027 21.1194Z" fill="#D0D6FC"/>
<path d="M94.6707 42.128C94.6707 29.853 86.3578 19.9006 76.098 19.9006C65.8382 19.9006 57.5253 29.853 57.5253 42.128H94.6658H94.6707Z" fill="#D0D6FC"/>
<path d="M93.4273 47.9584C99.24 47.9584 103.952 43.2662 103.952 37.4781C103.952 31.69 99.24 26.9978 93.4273 26.9978C87.6146 26.9978 82.9025 31.69 82.9025 37.4781C82.9025 43.2662 87.6146 47.9584 93.4273 47.9584Z" fill="#28A9E2"/>
<path d="M112 68.9669C112 56.6919 103.687 46.7395 93.4273 46.7395C83.1675 46.7395 74.8546 56.6919 74.8546 68.9669H111.995H112Z" fill="#28A9E2"/>
<path d="M55.935 48.0591C61.7477 48.0591 66.4599 43.367 66.4599 37.5789C66.4599 31.7908 61.7477 27.0986 55.935 27.0986C50.1223 27.0986 45.4102 31.7908 45.4102 37.5789C45.4102 43.367 50.1223 48.0591 55.935 48.0591Z" fill="#A8DFF2"/>
<path d="M74.5077 69.0677C74.5077 56.7927 66.1948 46.8403 55.935 46.8403C45.6752 46.8403 37.3623 56.7927 37.3623 69.0677H74.5029H74.5077Z" fill="#A8DFF2"/>
</g>
<defs>
<clipPath id="clip0_1_1227">
<rect width="112" height="69" fill="white" transform="translate(0 0.158875)"/>
</clipPath>
</defs>
</svg>
